<?xml version="1.0" encoding="utf-8"?>
<!-- Generator: Adobe Illustrator 21.1.0, SVG Export Plug-In . SVG Version: 6.00 Build 0)  -->
<svg version="1.1" id="Layer_1" xmlns="http://www.w3.org/2000/svg" xmlns:xlink="http://www.w3.org/1999/xlink" x="0px" y="0px"
	 viewBox="0 0 595.3 145.3" style="enable-background:new 0 0 595.3 145.3;" xml:space="preserve">
<style type="text/css">
	.st0{fill:#00A8D5;}
	.st1{fill:#2F2826;}
	.st2{fill:#F37321;}
	.st3{fill:#F7922A;}
	.st4{fill:#FBAD1D;}
	.st5{fill:#FFFFFF;}
</style>
<g>
	<g>
		<path class="st0" d="M135,112.3c-2,0-3.4,0.7-4.6,2.5c-0.2,0.3-0.6,0.8-0.9,1.2v-3.6h-6.1v22.4h6.1v-11.2c0-3.7,2.1-5.7,5.3-5.7
			h4.5c0.1-2.7,0.8-4.6,2.7-5.6H135z"/>
		<polygon class="st0" points="98.3,112.3 91.4,112.3 84,118.9 84,105.7 78,105.7 78,134.7 84,134.7 84,125.7 92,134.7 99,134.7 
			87.6,122 		"/>
		<path class="st0" d="M114.9,112.3c-1.2,0-2.4,0-3.6,0c-1.6,0-3.2,0.7-4.8,2.2v-8.7h-6v29h6v-2.2c1.5,1.5,3.1,2.2,4.8,2.2
			c1.2,0,2.3,0,3.6,0c3.6,0,5.4-2.3,5.4-6.9c0-1.5,0-3,0-4.5c0-1.5,0-2.9,0-4.4C120.3,114.5,118.5,112.3,114.9,112.3z M114.3,123.3
			c0,0.8,0,1.6,0,2.5c0,2.5-0.7,3.8-2.3,3.8c-0.5,0-1,0-1.5,0c-0.5,0-1,0-1.6,0c-1.3,0-2.1-1-2.2-2.9c0-0.3,0-0.5,0-0.8
			c0-0.8,0-1.6,0-2.5c0-0.8,0-1.6,0-2.3c0-0.3,0-0.5,0-0.8c0.1-1.8,0.9-2.7,2.2-2.7c0.5,0,1.1,0,1.6,0c0.5,0,1,0,1.5,0
			c1.5,0,2.3,1.2,2.3,3.5C114.3,121.7,114.3,122.5,114.3,123.3z"/>
		<path class="st0" d="M157.1,112.3c-1.6,0-2.3,0-3.7,0c-1.6,0-3.1,0-4.6,0c-4.5,0-6.8,2.2-6.8,6.7c0,1.5,0,3,0,4.5c0,1.5,0,3,0,4.5
			c0,4.5,2.3,6.7,6.8,6.7c1.5,0,3,0,4.6,0c1.4,0,2.2,0,3.7,0c4.5,0,6.8-2.3,6.8-6.7c0-1.5,0-3,0-4.5c0-1.5,0-3,0-4.5
			C163.9,114.5,161.6,112.3,157.1,112.3z M157.9,123.5c0,0.8,0,1.6,0,2.4c0,2.4-1.1,3.7-3.3,3.7c-0.7,0-0.6,0-1.3,0
			c-0.7,0-1.4,0-2.2,0c-2.1,0-3.1-1.2-3.2-3.7c0-0.8,0-1.6,0-2.4c0-0.8,0-1.6,0-2.4c0-2.4,1.1-3.6,3.2-3.6c0.8,0,1.5,0,2.2,0
			c0.7,0,0.6,0,1.4,0c2.2,0,3.2,1.2,3.2,3.6C157.9,121.8,157.9,122.7,157.9,123.5z"/>
	</g>
	<g>
		<g>
			<path class="st1" d="M457.4,79.7h8.7c0,1.7,0.3,2.9,0.9,3.7c0.6,0.5,1.3,0.8,2.2,0.8c0.9,0,1.6-0.4,2.1-0.9
				c0.6-0.6,0.9-1.8,0.9-3.6h14.4c0,1.7,0.3,2.9,0.8,3.7c0.6,0.5,1.3,0.8,2.2,0.8c0.9,0,1.6-0.4,2.1-0.9c0.6-0.6,0.9-1.8,0.9-3.6
				h9.8c0.7,0,1.3-0.3,1.8-0.8c0.4-0.5,0.6-1.1,0.6-1.9c0-0.7-0.2-1.4-0.6-1.8c-0.5-0.5-1-0.7-1.8-0.7h-9.8c0-1.4-0.3-2.4-0.9-2.9
				c-0.6-0.5-1.3-0.8-2.1-0.9c-0.9,0-1.7,0.3-2.2,0.9c-0.5,0.4-0.8,1.4-0.8,2.9h-14.4c0-1.4-0.3-2.4-0.9-2.9
				c-0.6-0.5-1.3-0.8-2.1-0.9c-0.9,0-1.6,0.3-2.2,0.9c-0.5,0.4-0.8,1.4-0.8,2.9h-8.7c-0.8,0-1.4,0.2-1.8,0.7
				c-0.5,0.5-0.7,1.1-0.7,1.8c0,0.8,0.2,1.4,0.7,1.9C456,79.4,456.6,79.7,457.4,79.7z"/>
			<path class="st1" d="M511.9,64.3c-0.9-0.5-1.8-0.8-2.8-0.8h-26.8c0-2-0.4-3.4-1-4.1c-0.6-0.6-1.3-0.9-2.2-0.9
				c-0.9,0-1.7,0.3-2.3,0.9c-0.5,0.6-0.7,2-0.8,4.1h-24.3c-1.5,0-2.8,0.5-3.9,1.7c-1.2,1.3-1.7,2.7-1.6,4.1v9.8
				c0,1.1,0.3,1.9,0.9,2.6c0.5,0.6,1.2,1,2.3,1c0.9,0,1.6-0.3,2.2-0.9c0.7-0.7,1-1.6,1-2.7v-7.4c-0.1-0.5,0.1-1,0.6-1.5
				c0.4-0.5,0.9-0.7,1.5-0.6h52c0.7,0,1.3,0.4,1.6,1.2c0.4,1.1,0,3.4-1.1,6.9c-0.7,2.2-0.1,3.7,1.9,4.6c0.9,0.2,1.7,0.2,2.4-0.1
				c0.8-0.4,1.3-1.1,1.7-2.3c1.7-5.6,2-10,0.6-13.3C513.4,65.8,512.8,65,511.9,64.3z"/>
			<path class="st1" d="M511.1,115.2c-0.9,0-1.6,0.2-2.2,0.9c-0.6,0.6-1,2.5-1,5.5c0,1.9-1.7,2.9-5.1,3c-0.2,0-0.4,0-0.5,0.1
				c0.3-0.2,0.6-0.5,0.8-0.9c0.4-0.6,0.5-1.4,0.4-2.2c-0.5-1.5-2.8-3-6.7-4.4c-0.8-0.3-1.5-0.3-2.2,0c-0.7,0.4-1.1,0.9-1.4,1.6
				c-0.2,0.8-0.1,1.5,0.1,2.2c0.3,0.7,0.9,1.1,1.8,1.4c1,0.3,2.4,1.1,4.2,2.3c-2.8,0-5.8,0-8.9-0.1c-1-0.1-1.8-0.4-2.4-1.1
				c-0.7-0.7-1-1.5-1.1-2.7v-5h13.6c1.1,0,2.2-0.5,3-1.5c0.9-1,1.4-2.1,1.5-3.4V89.1c-0.1-1.1-0.4-2.1-1.2-2.9
				c-0.9-0.8-2.1-1.2-3.3-1.2h-42.7c-1.1-0.1-2,0.4-2.8,1.2c-0.7,0.8-1.1,1.8-1.1,2.9v21.9c0,1.3,0.3,2.4,1.2,3.5
				c0.7,0.8,1.5,1.3,2.7,1.4h8.3c-0.1,2.7-1.4,4.8-3.6,6.2c-2.8,1.5-7.8,2.5-15,2.8c-2.3-0.2-3.7,0.9-4,3.1c-0.1,1,0.2,1.8,0.7,2.6
				c0.6,0.8,1.4,1.2,2.6,1.4c12-0.8,19.8-3.5,23.4-8.1c0.2-0.4,0.4-0.9,0.8-1.4c0.9-2,1.5-4.2,1.6-6.5h8.1v7.2
				c0,2.6,1.1,4.8,3.3,6.4c1.3,0.8,2.7,1.3,4.2,1.5c11.9,0.5,19,0.2,21.4-0.8c2.7-1.5,4-3.7,4.1-6.3c0-0.9,0.2-2.5,0.4-4.9
				c0-1-0.2-1.9-0.8-2.7C512.6,115.7,511.9,115.3,511.1,115.2z M460.4,92.6c-0.1-0.8,0.1-1.4,0.5-1.9c0.3-0.3,0.8-0.5,1.6-0.5h34
				c0.7,0,1.4,0.2,1.7,0.7c0.3,0.4,0.4,0.9,0.4,1.7v1.1h-38.3V92.6z M460.4,98.8h38.3v3.2h-38.3V98.8z M462.5,110.6
				c-0.7,0-1.3-0.2-1.6-0.6c-0.4-0.4-0.5-0.9-0.5-1.7v-1.1h38.3v1.1c0,0.8-0.2,1.3-0.5,1.7c-0.4,0.3-0.9,0.6-1.7,0.6H462.5z"/>
		</g>
		<g>
			<path class="st1" d="M556.5,101.9c-0.3-0.8-0.9-1.3-1.8-1.6c-0.8-0.3-1.5-0.4-2.3-0.1c-0.7,0.4-1.2,1-1.5,1.9
				c-4.3,12-11.3,19.3-21.3,22.2c-5,1.2-7.5,2.5-7.5,3.9c0,0.4,0,0.8,0.1,1.3c0.2,0.9,0.6,1.7,1.3,2.2c1,0.8,4.2,0.3,9.6-1.6
				c11.1-4.5,18.9-13.1,23.4-25.7C556.8,103.6,556.8,102.7,556.5,101.9z"/>
			<path class="st1" d="M524.5,89.7h13.7v17.7c0,1-0.2,1.7-0.7,2.1c-0.4,0.3-1.7,0.3-3.7,0c-2-0.6-3.4,0.1-4,2.1
				c-0.2,0.8-0.1,1.6,0.2,2.4c0.6,1.2,2.3,1.9,5.2,2.3c2.8,0.2,4.7,0,5.8-0.8c2.1-1.4,3.1-3.5,3.2-6.5V89.7h10.4
				c0.9,0,1.6-0.3,2.1-0.9c0.5-0.6,0.8-1.3,0.8-2.2c0-0.9-0.3-1.7-0.8-2.2c-0.5-0.5-1.2-0.8-2.1-0.8h-10.4V74h8.3
				c0.9,0,1.6-0.3,2.1-0.9c0.5-0.6,0.7-1.3,0.8-2.2c0-0.9-0.3-1.7-0.8-2.2c-0.5-0.5-1.1-0.8-2.1-0.8h-8.3v-5.3c0-1.1-0.3-2-0.9-2.7
				c-0.6-0.5-1.3-0.8-2.1-0.8c-0.9,0.1-1.6,0.4-2.2,0.9c-0.6,0.7-0.8,1.5-0.8,2.6v21.1h-4.9c0-5.1,0-10.3,0-15.5
				c0-1-0.3-1.7-0.9-2.3c-0.6-0.5-1.3-0.8-2-0.8c-0.9,0-1.6,0.3-2.1,0.8c-0.5,0.5-0.8,1.3-0.8,2.3c0,5.1,0,10.3,0,15.5h-3
				c-0.9,0-1.6,0.3-2.1,0.8c-0.5,0.6-0.7,1.4-0.8,2.2c0,0.9,0.2,1.7,0.8,2.3C522.8,89.4,523.5,89.7,524.5,89.7z"/>
			<path class="st1" d="M589.8,127.6c-3.3-2.3-6.2-4-8.9-5.1c-0.9-0.3-1.7-0.4-2.4-0.1c-0.8,0.3-1.3,0.9-1.6,1.7
				c-0.3,0.8-0.4,1.6-0.1,2.3c0.4,0.8,1,1.4,1.9,1.8c2.1,0.8,4.6,2.3,7.6,4.5c0.9,0.5,1.7,0.7,2.4,0.7c0.8,0,1.4-0.5,1.9-1.3
				c0.5-0.8,0.6-1.6,0.5-2.4C591,128.9,590.6,128.2,589.8,127.6z"/>
			<path class="st1" d="M524.4,110.3c0.7,0,1.4-0.3,2.2-1c2.9-2.8,5.3-6.9,7.1-12.1c0.3-0.9,0.3-1.8,0-2.5c-0.4-0.7-0.9-1.2-1.6-1.5
				c-0.8-0.2-1.5-0.1-2.1,0.1c-0.8,0.4-1.3,1-1.5,2c-1.5,4-3.4,7.3-5.8,9.8c-0.6,0.7-1,1.4-1.1,2.3c0.1,0.7,0.3,1.5,0.8,2.1
				C523,109.9,523.7,110.2,524.4,110.3z"/>
			<path class="st1" d="M558.7,68.1h11.3c-0.8,1.9-1.5,3.9-2.3,5.9h-5.3c-1.2,0-2.2,0.4-3,1.3c-0.8,0.8-1.2,1.8-1.2,3.1v37
				c-0.1,1.3,0.3,2.5,1.2,3.7c0.7,0.9,1.6,1.4,3,1.4h21.5c1.3,0,2.4-0.5,3.4-1.5c1-1.1,1.5-2.3,1.5-3.6v-37c0-1.3-0.5-2.3-1.4-3.1
				c-0.9-0.9-2.1-1.4-3.6-1.3h-9.7c0.7-2,1.3-4,2.1-5.9h12c0.9,0,1.6-0.3,2.1-0.9c0.5-0.6,0.7-1.4,0.8-2.2c0-0.9-0.2-1.7-0.8-2.2
				c-0.5-0.5-1.2-0.8-2.1-0.8h-29.5c-0.9,0-1.7,0.3-2.2,0.8c-0.5,0.6-0.8,1.3-0.8,2.2c0,0.9,0.3,1.7,0.8,2.2
				C557,67.8,557.8,68.1,558.7,68.1z M582.4,111.9c0,0.8-0.1,1.5-0.5,1.9c-0.4,0.4-1,0.6-1.8,0.7h-13.1c-0.8,0-1.4-0.2-1.8-0.6
				c-0.3-0.4-0.5-1.1-0.6-1.9v-4.6h17.9V111.9z M582.4,101.2h-17.9V94h17.9V101.2z M580.1,80.1c0.8,0,1.4,0.3,1.8,0.8
				c0.4,0.3,0.5,1,0.5,1.8v5.2h-17.9v-5.2c0-0.8,0.2-1.5,0.6-2c0.3-0.4,0.9-0.5,1.8-0.5H580.1z"/>
			<path class="st1" d="M566.2,121.9c-0.7-0.1-1.6,0.2-2.4,0.8c-3.1,2.2-6.2,3.7-9.5,4.5c-0.9,0.2-1.6,0.6-2.2,1.3
				c-0.3,0.7-0.5,1.4-0.4,2.3c0.2,0.9,0.6,1.6,1.2,2c0.5,0.5,1.3,0.6,2.4,0.5c3.7-0.5,7.6-2.3,12-5.6c0.8-0.6,1.2-1.4,1.5-2.3
				c0-0.8-0.2-1.5-0.7-2.3C567.6,122.4,567,122,566.2,121.9z"/>
		</g>
		<g>
			<path class="st1" d="M434.1,124.8c-8.3-5.6-15-12.3-19.7-19.9c-3.8-5.9-6.5-12.8-8-20.5c0.9,0,24.6,0,24.6,0c1,0,1.9-0.4,2.7-1.2
				c0.7-0.8,1-1.7,1-2.8c0-1.2-0.3-2.2-1-2.9c-0.8-0.7-1.6-1.1-2.7-1.1c0,0-24.7,0-25.6,0c0.1-0.8,0.2-3.3,0.2-3.3v-8.9
				c0-1.4-0.4-2.6-1.1-3.4c-0.7-0.7-1.6-1.1-2.7-1.1c-1.1,0-2,0.4-2.7,1.2c-0.7,0.9-1.1,2-1.1,3.4V73c0,0-0.1,2.7-0.1,3.4
				c-0.8,0-25.4,0-25.4,0c-1.1,0-2,0.4-2.7,1.1c-0.6,0.8-1,1.7-1,2.8c0,1.2,0.3,2.2,1,2.9c0.7,0.7,1.6,1.2,2.7,1.2
				c0,0,23.4,0,24.5,0c-3.4,18.5-12.6,31.9-27.1,39.7c-1,0-2,0.9-2.7,2.9c-0.2,0.9-0.1,1.9,0.4,3c0.6,1.1,1.3,1.8,2.2,2
				c1.5,0.5,4.3-0.7,9-3.7c11.3-8.1,19.1-19.4,23.4-33.5c4.4,13.8,13.6,26.2,27.4,37c1.1,0.8,2.2,1.2,3.3,1c1-0.2,1.8-0.9,2.5-1.9
				c0.5-0.8,0.7-1.7,0.7-2.5c0-0.3-0.1-0.5-0.1-0.8C435.8,126.6,435.2,125.6,434.1,124.8z"/>
		</g>
	</g>
	<g>
		<g>
			<path class="st1" d="M259.7,124h-0.2c-0.4-0.1-2,0.2-3.7-1.5c-0.9-0.9-1.1-2.2-1.1-2.8V67.2c0-0.5,0-2.7-2.4-4.7
				c-2.1-1.9-3.7-1.8-4.5-1.8h-19.3c-0.2,0-0.6,0.2-1,0.5c-0.3,0.4-0.5,0.8-0.5,1.3v31.4c0,9.1-0.5,19.9-1.8,22.6
				c-0.6,1.3-1.2,2.1-2.1,2.7c-0.8,0.5-3.1,1-3.1,1c-1.3,0.4-2,0.5-3.9,1c0.6-1.5,1-2.7,1.5-4.1c0.5-1.4,0.3-3-0.6-4.3
				c-1-1.4-2.5-1.9-2.5-1.9l-2.7-1c-1,3.5-2.7,7.9-5.2,13c-0.8,0-1.6,0.1-2.3,0.3c-7.3,1-13.7,1.7-19.4,2.2l1.5,7.9
				c5-0.4,15.4-1.8,31.2-4.3c0,0,6.2-1.1,8.5-2.3c2.6-1.3,3.4-1.5,5.7-5c3.2-5.4,3.4-12.8,3.4-25.3V69.8c0-0.7,0.4-1,1-1h8.7
				c0.9,0,1.2,0.4,1.3,1.3v51.1c0,2.2,0.5,5.5,2.3,7.5c1.9,2,2.8,3.2,6.9,3.2c4.3-0.1,0.8,0,2.8-0.1c4.4,0,8-7.9,7.8-7.9
				C266.1,123.9,260.3,123.9,259.7,124z"/>
			<path class="st1" d="M190.4,88.1c0.6,0,31.8,0,31.8,0s0-2.5,0-3.1c0-0.6-0.2-2-1.5-3.2c-1.3-1.2-2.6-1.3-3.1-1.3
				c-0.7,0-32,0-32,0s0,1.8,0,2.5c0,0.2-0.2,1.9,1.5,3.6C188,87.7,189.6,88.1,190.4,88.1z"/>
			<path class="st1" d="M189.5,78.2h29c2.3,0,3.5-1.2,3.5-3.5c0,0,0-8.2,0-8.8c0-0.2,0-2-1.8-3.3c-1.2-1-2.2-1.1-2.9-1.1
				s-2.2,0-2.2,0V70c0,0.8-0.4,1.2-1.2,1.2h-5.9v-7.8c0,0,0-1.9-1.9-3.1c-1.8-1.2-4.2-1.1-4.2-1.1h-1.5v12h-6c-0.7,0-1-0.4-1.1-1.2
				v-4.1c0-0.2-0.1-2-1.8-3.3c-1.2-1-2.3-1.1-3-1.1h-2.2v13.2C186.1,77.1,187.2,78.2,189.5,78.2z"/>
			<path class="st1" d="M193.6,113.4c-3.1-0.9-5.4,0.6-5.4,0.6c1.9,4,3.4,7.3,4.3,9.9l7.3-2.2c-0.4-1.2-0.8-2.3-2-4.9
				C197.2,115.7,196.1,114.1,193.6,113.4z"/>
			<path class="st1" d="M221.2,105v-8.8c0-2.3-2.3-4.6-4.8-4.6h-28.2c-0.7,0-1.8,0.7-1.8,1.8v14.4c0,0.9,0.8,1.8,1.9,1.8h28.1
				C219.6,109.5,221.2,106.3,221.2,105z M213.7,102c0,0.7-0.7,0.8-0.9,0.8h-17.8c-0.7,0-0.9-0.6-0.9-0.9v-2.8c0-0.7,0.4-0.9,1-0.9
				h17.7c0.4,0,0.9,0.2,0.9,0.9V102z"/>
		</g>
		<g>
			<path class="st1" d="M337.6,72.7c0.5-1.4,1-2.6,1.5-3.6c0,0,2,0.3,3.8-1.5c1.9-1.8,1.7-5.2,1.7-5.2h-14.4c0,0,0.3-3-1.6-4.6
				c-1.5-1.3-3.2-1.2-3.2-1.2h-3.1v5.8h-8.7c0,0-2.3-0.1-4,1.9c-1.5,1.9-1.1,4.8-1.1,4.8h5c0.8,1.8,1.5,3.7,2.2,5.4
				c0,0-3.4-0.1-5.7,2.4c-2.3,2.5-2.4,4.3-2.4,4.3h15.2V84c0,0-4.1,0-6.1,0c-2.3,0-6.4,2.1-7.5,6.7c1,0,13.6,0,13.6,0v5.2h1.5
				c0,0,3-0.4,4.5-1.2c1.1-0.7,1.6-1.4,1.6-2.3c0-0.7,0-1.7,0-1.7s4.4,0,5,0c7.2-0.3,8.2-6.7,8.2-6.7h-13.2v-2.8c0,0,5.4,0,6.5,0
				c0.3,0,3.1-0.2,5.2-1.8c2.6-2.1,3.1-4.9,3.1-4.9h-8.2C337,73.9,337.3,73.3,337.6,72.7z M331.6,69.5c-0.8,1.8-1.6,3.5-2.4,5.2
				h-6.4c-0.7-1.8-1.3-3.7-2-5.5h11C331.7,69.2,331.7,69.3,331.6,69.5z"/>
			<path class="st1" d="M285,78.9c-3.1,0-4.8,2.9-4.8,5v8.2c0,1.1,1.5,4.4,4.5,4.4h16.7c3.1,0,4.6-3.1,4.6-4.7v-8
				c0-3.3-3-4.8-4.6-4.8H285z M299.3,89.1c0,0.3-0.1,1-0.9,1h-10.7c-0.4,0-0.9-0.2-0.9-0.8v-3.2c0-0.5,0.6-0.8,1-0.8h10.6
				c0.5,0,0.9,0.3,0.9,0.8V89.1z"/>
			<path class="st1" d="M278.5,90.6c0.9-3.7,1.5-8.1,1.5-12.5V77l19.6,0.2c3.2,0,6.7-2.7,6.7-6.5v-6.9c0-2.7-2.5-4.7-4.6-4.7h-24.5
				c-1.9,0-4.6,1.7-4.6,4.5v11.9c0,7.7-1.9,15.7-6.1,21.7c0,0,6.1,0.8,8.2-0.5C276.7,95.4,277.7,93.8,278.5,90.6z M280,67
				c0-0.7,0.4-1,1.1-1.1h16.8c0.7,0,1.1,0.4,1.1,1.1v2.3c0,0.7-0.4,1.1-1.1,1.1h-18V67z"/>
			<path class="st1" d="M317.2,113.1h15.5c0,0,3.4-0.2,5.2-1.9c2.5-2.3,2.9-4.1,2.9-4.1H316c-0.2-1.3-0.5-2.4-0.7-3
				c0.9,0,2.1-0.1,2.3-0.1c6.6-0.3,9.8-0.7,14.3-1.2c2.4-0.2,3.8-1.3,4.8-2.3c2.3-2.2,2.7-4.9,2.7-4.9c-14.3,2.4-61.7,2.7-62.5,2.7
				c1.3,5.4,6.1,5.8,7,6c1,0.3,12.1,0.2,23.4,0c0.5,0.7,0.6,1.7,0.9,2.6h-26.2c0,0-2.6-0.1-5,2c-2.2,1.8-2.8,4-2.8,4h35.2
				c0.1,0.5,0.3,2.1,0.3,3.1c0,0-29.5,0-30.9,0c-1.5,0-3.1,0-4.7,2c-1.2,1.4-2,2.3-3.4,4.5c0.7,0,39,0,39,0
				c-0.2,1.1-0.5,3.3-2.3,3.6c-1.3,0.3-4.4,0.4-6.3,0.4c-3.9,0-5.4,0-12.8-0.2c0,0,0.8,1,3.6,3.5c1,0.9,3.3,3.2,6.1,3.3
				c4,0.1,6.5-0.1,11.7-0.1c4.6,0,6.7-6,7-10.5h19c0,0,3.2,0.1,5.6-2c2.4-2,2.9-4.5,2.9-4.5h-27
				C317.3,115.7,317.3,113.6,317.2,113.1z"/>
		</g>
	</g>
	<g>
		<path class="st2" d="M58.1,125.8c0.7,0.2,1.4,0.3,2.2,0.3c3.1,0,5.9-2,6.9-5.1l9.9-31.5l-12.4-8.2L39,88v31.7L58.1,125.8z"/>
		<path class="st2" d="M7.1,104.3c0,3.1,2,6,5.1,6.9l18.8,5.9V88.5c-3.2-1-6-3.7-6.8-7.2l-4.5-17.6L7.4,102.2
			C7.2,102.9,7.1,103.6,7.1,104.3z"/>
		<path class="st3" d="M14.7,31.9c0,0.6,0.1,1.2,0.2,1.8l12,46.7c0.6,2.2,2.1,3.8,3.9,4.7V38.4l0,0l0,0c0,0,0-0.1,0-0.1
			c0-0.2,0-0.3,0-0.5v0v-0.3h0c0.4-5.6,5.3-10.1,11.2-10.1c5.9,0,10.7,4.3,11.3,9.8l0,0h0.1v1c0,0,0,0,0,0.1c0,0,0,0,0,0.1l0.1,14.3
			L76.1,19l-0.3-0.9c-0.8-3.3-3.8-5.5-7-5.5c-0.6,0-1.2,0.1-1.8,0.3l-46.7,12C16.9,25.7,14.7,28.7,14.7,31.9z"/>
		<polygon class="st3" points="39,38.4 39,84.9 45.1,83.3 45.1,38.4 39,38.4 		"/>
		<polygon class="st3" points="61.4,79.1 55.7,75.3 47.6,82.7 		"/>
		<path class="st4" d="M131.1,55.1c0.8-1.3,1.2-2.7,1.2-4c0-2.4-1.1-4.7-3.2-6.1L88.9,18.3c-1.2-0.8-2.6-1.2-4-1.2
			c-2.4,0-4.7,1.1-6,3.3L53.7,58l0.1,8.7l8.2-7.1l13.4-11.6l0.1,0c4.2-3.8,10.7-3.6,14.5,0.6c3.9,4.1,3.8,10.4-0.1,14.3l0.1,0.1
			l-7.1,6.5l-3.6,3.3l3.7,3.2l21.8,18.6L131.1,55.1z"/>
		<polygon class="st4" points="89.3,93.9 79.9,86 65.7,74 76.6,64.2 84,57.4 82.1,55.4 80.1,53.3 70.2,62.2 58,73.2 		"/>
		<path class="st5" d="M130.7,42.5L90.5,15.8c-1.7-1.1-3.7-1.7-5.7-1.7c-2.3,0-4.6,0.8-6.4,2.3c-1.6-4.1-5.4-6.8-9.7-6.8
			c-0.8,0-1.7,0.1-2.6,0.3L19.5,21.9c-4.7,1.2-7.7,5.4-7.7,10c0,0.9,0.1,1.7,0.3,2.6L18.1,58L4.5,101.2c-0.3,1-0.5,2.1-0.5,3.1
			c0,4.4,2.8,8.4,7.2,9.8l46,14.5c1,0.3,2.1,0.5,3.1,0.5l0,0c4.4,0,8.4-2.8,9.8-7.2l9.7-30.6l12.8,8.5c1.8,1.1,3.7,1.7,5.7,1.7
			c3.3,0,6.6-1.6,8.6-4.6l26.7-40.2c1.2-1.8,1.7-3.7,1.7-5.7C135.3,47.7,133.7,44.5,130.7,42.5z M83.1,75.9l-3.7-3.2l3.6-3.3
			l7.1-6.5L90,62.9c3.8-4,3.9-10.3,0.1-14.3c-3.8-4.1-10.4-4.4-14.5-0.6l-0.1,0L62,59.6l-8.2,7.1L53.7,58l25.1-37.7
			c1.4-2.1,3.7-3.3,6-3.3c1.4,0,2.8,0.4,4,1.2L129.1,45c2.1,1.4,3.2,3.7,3.2,6.1c0,1.4-0.4,2.8-1.2,4l-26.1,39.4L83.1,75.9z
			 M20.2,24.9l46.7-12c0.6-0.2,1.2-0.2,1.8-0.3c3.2,0,6.2,2.2,7,5.5l0.3,0.9L53.7,52.6l-0.1-14.3c0,0,0,0,0-0.1c0,0,0,0,0-0.1v-1
			h-0.1l0,0c-0.6-5.5-5.4-9.8-11.3-9.8c-5.9,0-10.8,4.4-11.2,10.1h0v0.3v0c0,0.1,0,0.3,0,0.5c0,0,0,0.1,0,0.1l0,0l0,0v46.8
			c-1.9-0.9-3.4-2.6-3.9-4.7L15,33.7c-0.1-0.6-0.2-1.2-0.2-1.8C14.7,28.7,16.9,25.7,20.2,24.9z M55.7,75.3l5.7,3.8l-13.9,3.6
			L55.7,75.3z M45.1,83.3L39,84.9V38.4l0,0h6.1V83.3z M24.1,81.2c0.9,3.6,3.6,6.2,6.8,7.2v28.7l-18.8-5.9c-3.1-1-5.1-3.8-5.1-6.9
			c0-0.7,0.1-1.5,0.3-2.2l12.2-38.6L24.1,81.2z M39,88l25.8-6.7l12.4,8.2L67.2,121c-1,3.1-3.8,5.1-6.9,5.1c-0.8,0-1.5-0.1-2.2-0.3
			L39,119.7V88z M58,73.2l12.2-11l9.8-8.9l2,2.1l1.9,2l-7.4,6.7L65.7,74l14.2,12l9.4,8L58,73.2z"/>
	</g>
</g>
</svg>
